<svg width="78" height="19" viewBox="0 0 78 19" fill="none" xmlns="http://www.w3.org/2000/svg">
<path d="M11.5547 18.1172H12.5742L3.78516 0.539062H3.26953H2.74219H0V8.90625V9.83203V18.1172H3.26953V9.83203H7.40625L11.5547 18.1172ZM3.26953 8.90625V1.58203L6.9375 8.90625H3.26953ZM16.8281 18.1172H13.5938V0.539062H16.8281V18.1172ZM33.5391 1.46484V1.04297V0.539062H24.0117L23.7422 1.46484H30.1641L25.2188 18.1172H28.6055L33.5391 1.48828V1.46484ZM34.4648 5.63672L32.6016 7.07812L32.1094 8.63672L34.4648 6.80859V9.77344L30.9844 12.4805L30.4922 14.0391L34.4648 10.9336V18.1172H37.6992V0.539062H34.4648V5.63672ZM37.957 0.539062V18.1172H41.2031V0.539062H37.957ZM57.0352 0.539062H53.8125V9.31641H57.0352V3.89062L59.7891 1.73438V0.574219L57.0352 2.71875V0.539062ZM45.75 9.29297L49.0312 5.47266L51.7383 9.29297H52.7812L49.6055 4.79297L52.4414 1.48828V1.46484V1.04297V0.539062H42.5977L42.3281 1.46484H48.6445L42.4102 9.29297H45.75ZM53.4375 9.85547H46.5703C45.4805 9.85547 44.5664 10.2422 43.793 11.0039C43.0312 11.7773 42.6445 12.7031 42.6445 13.7812V14.1914C42.6445 15.2695 43.0312 16.1953 43.793 16.9688C44.5664 17.7305 45.4805 18.1172 46.5703 18.1172H53.4375C54.5156 18.1172 55.4414 17.7305 56.2031 16.9688C56.9648 16.1953 57.3516 15.2695 57.3516 14.1914V13.7812C57.3516 12.7031 56.9648 11.7773 56.2031 11.0039C55.4414 10.2422 54.5156 9.85547 53.4375 9.85547ZM50.9531 17.1797H49.043C48.1641 17.1797 47.4141 16.8633 46.793 16.2422C46.1719 15.6211 45.8672 14.8711 45.8672 13.9805C45.8672 13.1016 46.1719 12.3516 46.793 11.7305C47.4141 11.1094 48.1641 10.793 49.043 10.793H50.9531C51.832 10.793 52.582 11.1094 53.2031 11.7305C53.8242 12.3516 54.1406 13.1016 54.1406 13.9805C54.1406 14.8711 53.8242 15.6211 53.2031 16.2422C52.582 16.8633 51.832 17.1797 50.9531 17.1797ZM67.2188 9.79688H64.043H63.8438L61.6875 17.168V17.1914V17.6016V18.1172H76.125L76.3945 17.1914V9.79688H73.1602H67.2188ZM65.0508 17.1914L66.9492 10.7227H73.1602V17.1914H65.0508ZM72.0586 8.42578H64.2539L66.5625 0.539062H63.1992L60.8906 8.40234V8.42578V8.84766V9.35156H71.7891L72.0586 8.42578ZM73.957 0.539062V9.35156H77.1914V0.539062H73.957Z" fill="#0B132A"/>
</svg>
